# xmcd
#
# Track frame offsets:
#	150
#	7001
#	26881
#	31591
#	81151
#	109640
#	155808
#	172622
#	193180
#	232587
#
# Disc length: 3641 seconds
#
# Revision: 0
# Processed by: cddbd v1.5.1PL0 Copyright (c) Steve Scherf et al.
# Submitted via: dBpowerAMP V4.0
#
DISCID=6a0e370a
DTITLE=Al kooper and Mike bloomfield - fillmore east-the lost concert tapes
DYEAR=1900
DGENRE=Blues
TTITLE0=01.Introductions 
TTITLE1=02.One Way Out 
TTITLE2=03.Mike Bloomfield's Introduction Of Johnny Winter 
TTITLE3=04.It's My Own Fault 
TTITLE4=05.59th Street Bridge Song 
TTITLE5=06.Tell Me Partner 
TTITLE6=07.That's All Right Mama 
TTITLE7=08.Together Till The End Of Time 
TTITLE8=09.Don't Throw Your Love On Me So Strong 
TTITLE9=10.Season Of The Witch 
EXTD=fillmore east-the lost concert tapes
EXTT0=
EXTT1=
EXTT2=
EXTT3=
EXTT4=
EXTT5=
EXTT6=
EXTT7=
EXTT8=
EXTT9=
PLAYORDER=
